<svg version="1.0" xmlns="http://www.w3.org/2000/svg" width="957.333" height="1706.667" viewBox="0 0 718 1280"><path d="M341 1c-3.6.4-11.9 1.3-18.5 2C217.4 13.4 122.4 70.1 62.7 158.2 29.1 207.7 9 262.8 3 322c-.6 5.8-1.5 14.6-2 19.7-1.3 11.7-1.3 22.9 0 30.7.5 3.3 1.7 11.6 2.5 18.2 16 128.1 135.6 431.1 327.5 829.7 15 31.2 27.6 56.7 28 56.7.4 0 13-25.5 28-56.8 191.9-398.5 311.5-701.5 327.5-829.6.8-6.6 2-14.9 2.5-18.2 1.3-7.8 1.3-19 0-30.7-.5-5.1-1.4-13.9-2-19.7C700.9 182.7 605.5 63.7 472.6 19.5 446.9 11 422.2 5.7 396 3c-5.8-.6-14.6-1.5-19.7-2C365.9-.1 350.6-.1 341 1zm50.2 200.9c20.8 4.5 43.4 14.4 60.5 26.4 11.3 7.9 30.1 26.7 38 38 12.1 17.2 21.9 39.7 26.5 61.1 1.9 8.6 2.2 13.2 2.2 31.6 0 20-.2 22.3-2.8 33.5-7.4 31.7-21.4 57.3-43.6 79.5-22.9 22.9-50.9 37.7-83.5 44.2-15.7 3.2-43.3 3.2-59 0-32.6-6.5-60.6-21.3-83.5-44.2-22.2-22.2-36.2-47.8-43.6-79.5-2.6-11.1-2.8-13.6-2.8-33-.1-18 .2-22.5 2.2-31.7 4.5-21.5 14.2-44 26.5-61.5 7.9-11.3 26.7-30.1 38-38 17.3-12.2 40.4-22.2 60.6-26.2 14-2.9 14.8-2.9 35.6-2.6 14.6.3 21.3.8 28.7 2.4z"/></svg>